<svg width="204" height="204" viewBox="0 0 204 204" version="1.1" xmlns="http://www.w3.org/2000/svg" xmlns:xlink="http://www.w3.org/1999/xlink">
<title>Group 7</title>
<desc>Created using Figma</desc>
<g id="Canvas" transform="translate(6010 -666)">
<g id="Group 7">
<g id="Rectangle">
<use xlink:href="#path0_fill" transform="translate(-6010 666)" fill="#59CDF2"/>
</g>
<g id="Group 6" filter="url(#filter0_d)">
<g id="Rectangle 2.3">
<use xlink:href="#path1_fill" transform="matrix(0.704709 -0.709496 -0.704709 -0.709496 -5946.17 812.756)" fill="#FFFFFF"/>
</g>
<g id="Ellipse 2.1">
<use xlink:href="#path2_fill" transform="translate(-5934.59 723)" fill="#FFFFFF"/>
</g>
<g id="Ellipse 2">
<use xlink:href="#path3_fill" transform="translate(-5928.22 729.408)" fill="#59CDF2"/>
</g>
</g>
</g>
</g>
<defs>
<filter id="filter0_d" filterUnits="userSpaceOnUse" x="-5955" y="723" width="95" height="97" color-interpolation-filters="sRGB">
<feFlood flood-opacity="0" result="BackgroundImageFix"/>
<feColorMatrix in="SourceAlpha" type="matrix" values="0 0 0 0 0 0 0 0 0 0 0 0 0 0 0 0 0 0 255 0"/>
<feOffset dx="0" dy="4"/>
<feGaussianBlur stdDeviation="2"/>
<feColorMatrix type="matrix" values="0 0 0 0 0 0 0 0 0 0 0 0 0 0 0 0 0 0 0.25 0"/>
<feBlend mode="normal" in2="BackgroundImageFix" result="effect1_dropShadow"/>
<feBlend mode="normal" in="SourceGraphic" in2="effect1_dropShadow" result="shape"/>
</filter>
<path id="path0_fill" d="M 0 28C 0 12.536 12.536 0 28 0L 176 0C 191.464 0 204 12.536 204 28L 204 176C 204 191.464 191.464 204 176 204L 28 204C 12.536 204 0 191.464 0 176L 0 28Z"/>
<path id="path1_fill" d="M 0 4C 0 1.79086 1.79086 0 4 0L 35.9614 0C 38.1706 0 39.9614 1.79086 39.9614 4L 39.9614 4.27969C 39.9614 6.48883 38.1706 8.27969 35.9614 8.27969L 4 8.27969C 1.79086 8.27969 0 6.48883 0 4.27969L 0 4Z"/>
<path id="path2_fill" d="M 70.125 35.2461C 70.125 54.7119 54.427 70.4921 35.0625 70.4921C 15.698 70.4921 0 54.7119 0 35.2461C 0 15.7802 15.698 0 35.0625 0C 54.427 0 70.125 15.7802 70.125 35.2461Z"/>
<path id="path3_fill" d="M 57.375 28.8377C 57.375 44.7643 44.5312 57.6754 28.6875 57.6754C 12.8438 57.6754 0 44.7643 0 28.8377C 0 12.9111 12.8438 0 28.6875 0C 44.5312 0 57.375 12.9111 57.375 28.8377Z"/>
</defs>
</svg>
