<svg width="205" height="204" viewBox="0 0 205 204" version="1.1" xmlns="http://www.w3.org/2000/svg" xmlns:xlink="http://www.w3.org/1999/xlink">
<title>Design</title>
<desc>Created using Figma</desc>
<g id="Canvas" transform="translate(6222 -666)">
<g id="Design">
<g id="Rectangle">
<use xlink:href="#path0_fill" transform="translate(-6222 666)" fill="#F2994A"/>
</g>
<g id="Rectangle 2.2" filter="url(#filter0_d)">
<use xlink:href="#path1_fill" transform="matrix(0.706442 -0.707771 0.706442 0.707771 -6093.24 726.444)" fill="#FFFFFF"/>
</g>
<g id="Rectangle 2" filter="url(#filter1_d)">
<use xlink:href="#path2_fill" transform="matrix(0.706442 -0.707771 0.706442 0.707771 -6152.69 786.564)" fill="#FFFFFF"/>
</g>
<g id="Rectangle 2.1" filter="url(#filter2_d)">
<use xlink:href="#path3_fill" transform="matrix(0.706442 -0.707771 0.706442 0.707771 -6142.89 796.384)" fill="#FFFFFF"/>
</g>
<g id="Polygon" filter="url(#filter3_d)">
<use xlink:href="#path4_fill" transform="matrix(-0.706442 -0.707771 0.706442 -0.707771 -6159.5 821.394)" fill="#FFFFFF"/>
</g>
</g>
</g>
<defs>
<filter id="filter0_d" filterUnits="userSpaceOnUse" x="-6101" y="717" width="35" height="35" color-interpolation-filters="sRGB">
<feFlood flood-opacity="0" result="BackgroundImageFix"/>
<feColorMatrix in="SourceAlpha" type="matrix" values="0 0 0 0 0 0 0 0 0 0 0 0 0 0 0 0 0 0 255 0"/>
<feOffset dx="0" dy="4"/>
<feGaussianBlur stdDeviation="4"/>
<feColorMatrix type="matrix" values="0 0 0 0 0 0 0 0 0 0 0 0 0 0 0 0 0 0 0.2 0"/>
<feBlend mode="normal" in2="BackgroundImageFix" result="effect1_dropShadow"/>
<feBlend mode="normal" in="SourceGraphic" in2="effect1_dropShadow" result="shape"/>
</filter>
<filter id="filter1_d" filterUnits="userSpaceOnUse" x="-6160" y="726" width="81" height="80" color-interpolation-filters="sRGB">
<feFlood flood-opacity="0" result="BackgroundImageFix"/>
<feColorMatrix in="SourceAlpha" type="matrix" values="0 0 0 0 0 0 0 0 0 0 0 0 0 0 0 0 0 0 255 0"/>
<feOffset dx="0" dy="4"/>
<feGaussianBlur stdDeviation="4"/>
<feColorMatrix type="matrix" values="0 0 0 0 0 0 0 0 0 0 0 0 0 0 0 0 0 0 0.2 0"/>
<feBlend mode="normal" in2="BackgroundImageFix" result="effect1_dropShadow"/>
<feBlend mode="normal" in="SourceGraphic" in2="effect1_dropShadow" result="shape"/>
</filter>
<filter id="filter2_d" filterUnits="userSpaceOnUse" x="-6150" y="735" width="76" height="76" color-interpolation-filters="sRGB">
<feFlood flood-opacity="0" result="BackgroundImageFix"/>
<feColorMatrix in="SourceAlpha" type="matrix" values="0 0 0 0 0 0 0 0 0 0 0 0 0 0 0 0 0 0 255 0"/>
<feOffset dx="0" dy="4"/>
<feGaussianBlur stdDeviation="4"/>
<feColorMatrix type="matrix" values="0 0 0 0 0 0 0 0 0 0 0 0 0 0 0 0 0 0 0.2 0"/>
<feBlend mode="normal" in2="BackgroundImageFix" result="effect1_dropShadow"/>
<feBlend mode="normal" in="SourceGraphic" in2="effect1_dropShadow" result="shape"/>
</filter>
<filter id="filter3_d" filterUnits="userSpaceOnUse" x="-6173" y="784" width="40" height="41" color-interpolation-filters="sRGB">
<feFlood flood-opacity="0" result="BackgroundImageFix"/>
<feColorMatrix in="SourceAlpha" type="matrix" values="0 0 0 0 0 0 0 0 0 0 0 0 0 0 0 0 0 0 255 0"/>
<feOffset dx="0" dy="4"/>
<feGaussianBlur stdDeviation="4"/>
<feColorMatrix type="matrix" values="0 0 0 0 0 0 0 0 0 0 0 0 0 0 0 0 0 0 0.2 0"/>
<feBlend mode="normal" in2="BackgroundImageFix" result="effect1_dropShadow"/>
<feBlend mode="normal" in="SourceGraphic" in2="effect1_dropShadow" result="shape"/>
</filter>
<path id="path0_fill" d="M 0 28C 0 12.536 12.536 0 28 0L 177 0C 192.464 0 205 12.536 205 28L 205 176C 205 191.464 192.464 204 177 204L 28 204C 12.536 204 0 191.464 0 176L 0 28Z"/>
<path id="path1_fill" d="M 0 2C 0 0.895433 0.89543 0 2 0L 6.43905 0C 7.54362 0 8.43905 0.895431 8.43905 2L 8.43905 17.381C 8.43905 18.4856 7.54362 19.381 6.43905 19.381L 2 19.381C 0.895431 19.381 0 18.4856 0 17.381L 0 2Z"/>
<path id="path2_fill" d="M 0 4C 0 1.79086 1.79086 0 4 0L 78.1785 0C 80.3876 0 82.1785 1.79086 82.1785 4L 82.1785 8.73623C 82.1785 10.9454 80.3876 12.7362 78.1785 12.7362L 4 12.7362C 1.79086 12.7362 0 10.9454 0 8.73622L 0 4Z"/>
<path id="path3_fill" d="M 0 2.4948C 0 1.11696 1.11696 0 2.4948 0L 79.6837 0C 81.0615 0 82.1785 1.11696 82.1785 2.4948L 82.1785 2.4948C 82.1785 3.87265 81.0615 4.98961 79.6837 4.98961L 2.4948 4.98961C 1.11696 4.98961 0 3.87265 0 2.4948L 0 2.4948Z"/>
<path id="path4_fill" d="M 8.35188 5.12234C 8.99298 3.37352 11.4664 3.37352 12.1075 5.12235L 19.4738 25.2166C 19.9523 26.5218 18.9862 27.905 17.596 27.905L 2.86333 27.905C 1.4732 27.905 0.50706 26.5218 0.985533 25.2166L 8.35188 5.12234Z"/>
</defs>
</svg>
