<svg width="346" height="353" viewBox="0 0 346 353" version="1.1" xmlns="http://www.w3.org/2000/svg" xmlns:xlink="http://www.w3.org/1999/xlink">
<title>Group 10</title>
<desc>Created using Figma</desc>
<g id="Canvas" transform="translate(3989 -2570)">
<g id="Group 10">
<g id="Ellipse 3.2">
<use xlink:href="#path0_fill" transform="translate(-3989 2570)" fill="#F7F7F7"/>
</g>
<g id="Ellipse 3.3">
<use xlink:href="#path1_fill" transform="translate(-3989 2743)" fill="#F7F7F7"/>
</g>
<g id="hoggi-nator">
<g id="Canvas">
<g id="Group 5">
<g id="Rectangle 5.3">
<g id="Vector">
<use xlink:href="#path2_fill" transform="matrix(0.00484548 0.999988 -0.999988 0.00484924 -3725.38 2842.97)" fill="#FFFFFF"/>
</g>
</g>
<g id="Rectangle 9">
<g id="Vector">
<use xlink:href="#path3_fill" transform="translate(-3824.26 2871.68)" fill="#C4C4C4"/>
</g>
</g>
<g id="Rectangle 5.2">
<g id="Vector">
<use xlink:href="#path4_fill" transform="matrix(0.00484548 0.999988 -0.999988 0.00484924 -3792.13 2813.11)" fill="#FAD7BE"/>
</g>
</g>
<g id="Rectangle">
<g id="Vector">
<use xlink:href="#path5_fill" transform="translate(-3910.26 2582)" fill="#F8D006"/>
</g>
</g>
<g id="Rectangle">
<g id="Vector">
<use xlink:href="#path6_fill" transform="translate(-3900.88 2623.76)" fill="#F7DAC6"/>
</g>
</g>
<g id="Vector 3.2">
<g id="Vector">
<use xlink:href="#path7_fill" transform="translate(-3852.93 2756.85)" fill="#FFFFFF"/>
</g>
<g id="Vector">
<use xlink:href="#path8_fill" transform="translate(-3856.09 2755.03)" fill="#FCC7A2"/>
</g>
</g>
<g id="Rectangle 4.1">
<g id="Vector">
<use xlink:href="#path9_fill" transform="matrix(1 0 0 -1 -3804.29 2668.88)" fill="#F8D006"/>
</g>
</g>
<g id="Rectangle 4.3">
<g id="Vector">
<use xlink:href="#path10_fill" transform="matrix(1 0 0 -1 -3875.52 2668.88)" fill="#F8D006"/>
</g>
</g>
<g id="Rectangle 4.2">
<g id="Vector">
<use xlink:href="#path11_fill" transform="translate(-3890.7 2590.79)" fill="#F8D006"/>
</g>
</g>
<g id="Rectangle 3.10">
<g id="Vector">
<use xlink:href="#path12_fill" transform="translate(-3800.81 2679.43)" fill="#FCFCFC"/>
</g>
</g>
<g id="Rectangle 3.11">
<g id="Vector">
<use xlink:href="#path12_fill" transform="translate(-3868.57 2679.43)" fill="#FFFFFF"/>
</g>
</g>
<g id="Rectangle 3.12">
<g id="Vector">
<use xlink:href="#path13_fill" transform="translate(-3859.88 2682.91)" fill="#2B6B8F" fill-opacity="0.83"/>
</g>
</g>
<g id="Rectangle 3.13">
<g id="Vector">
<use xlink:href="#path13_fill" transform="translate(-3792.12 2682.91)" fill="#4F84A2"/>
</g>
</g>
<g id="Polygon 2">
<g id="Vector">
<use xlink:href="#path14_fill" transform="matrix(1 0 0 -1 -3847.72 2871.68)" fill="#FAD7BE"/>
</g>
</g>
<g id="Rectangle 3.15">
<g id="Vector">
<use xlink:href="#path15_fill" transform="matrix(6.12086e-17 -1 1 6.12561e-17 -3836.99 2736.84)" fill="#F7B78A"/>
</g>
</g>
<g id="Rectangle 8.4">
<g id="Vector">
<use xlink:href="#path16_fill" transform="translate(-3858.14 2846.45)" fill="#C4C4C4"/>
</g>
</g>
<g id="Rectangle 8.6">
<g id="Vector">
<use xlink:href="#path17_fill" transform="matrix(-1 0 0 1 -3781.7 2844.71)" fill="#FFFFFF"/>
</g>
</g>
<g id="Rectangle 8">
<g id="Vector">
<use xlink:href="#path18_fill" transform="translate(-3858.14 2846.45)" fill="#FFFFFF"/>
</g>
</g>
<g id="Rectangle 8.7">
<g id="Vector">
<use xlink:href="#path16_fill" transform="matrix(-1 0 0 1 -3781.7 2846.45)" fill="#C4C4C4"/>
</g>
</g>
<g id="Rectangle 9">
<g id="Vector">
<use xlink:href="#path19_fill" transform="translate(-3816.45 2877.77)" fill="#C4C4C4"/>
</g>
</g>
<g id="Rectangle 8.8">
<g id="Vector">
<use xlink:href="#path18_fill" transform="matrix(-1 0 0 1 -3781.7 2846.45)" fill="#FFFFFF"/>
</g>
</g>
<g id="Ellipse 3">
<g id="Vector">
<use xlink:href="#path20_fill" transform="translate(-3821.66 2877.77)" fill="#474747"/>
</g>
</g>
<g id="Ellipse 3.3">
<g id="Vector">
<use xlink:href="#path21_fill" transform="matrix(1 0 0 -1 -3819.92 2880.38)" fill="#FFFFFF"/>
</g>
</g>
<g id="Ellipse 3.2">
<g id="Vector">
<use xlink:href="#path20_fill" transform="translate(-3821.66 2902.12)" fill="#474747"/>
</g>
</g>
<g id="Ellipse 3.4">
<g id="Vector">
<use xlink:href="#path21_fill" transform="matrix(1 0 0 -1 -3819.92 2904.73)" fill="#FFFFFF"/>
</g>
</g>
</g>
</g>
</g>
<g id="hoggi-nator">
<g id="Canvas">
<g id="Group 5">
<g id="Rectangle 5.3">
<g id="Vector">
<use xlink:href="#path2_fill" transform="matrix(0.00484548 0.999988 -0.999988 0.00484924 -3725.38 2842.97)" fill="#FFFFFF"/>
</g>
</g>
<g id="Rectangle 9">
<g id="Vector">
<use xlink:href="#path3_fill" transform="translate(-3824.26 2871.68)" fill="#C4C4C4"/>
</g>
</g>
<g id="Rectangle 5.2">
<g id="Vector">
<use xlink:href="#path4_fill" transform="matrix(0.00484548 0.999988 -0.999988 0.00484924 -3792.13 2813.11)" fill="#FAD7BE"/>
</g>
</g>
<g id="Rectangle">
<g id="Vector">
<use xlink:href="#path5_fill" transform="translate(-3910.26 2582)" fill="#F8D006"/>
</g>
</g>
<g id="Rectangle">
<g id="Vector">
<use xlink:href="#path6_fill" transform="translate(-3900.88 2623.76)" fill="#F7DAC6"/>
</g>
</g>
<g id="Vector 3.2">
<g id="Vector">
<use xlink:href="#path7_fill" transform="translate(-3852.93 2756.85)" fill="#FFFFFF"/>
</g>
<g id="Vector">
<use xlink:href="#path8_fill" transform="translate(-3856.09 2755.03)" fill="#FFFDFC"/>
</g>
</g>
<g id="Rectangle 4.3">
<g id="Vector">
<use xlink:href="#path22_fill" transform="matrix(1 0 0 -1 -3875 2668.96)" fill="#F8D006"/>
</g>
</g>
<g id="Rectangle 4.4">
<g id="Vector">
<use xlink:href="#path23_fill" transform="matrix(-1 0 -0 -1 -3771 2669)" fill="#F8D006"/>
</g>
</g>
<g id="Rectangle 4.2">
<g id="Vector">
<use xlink:href="#path11_fill" transform="translate(-3890.7 2590.79)" fill="#F8D006"/>
</g>
</g>
<g id="Rectangle 3.10">
<g id="Vector">
<use xlink:href="#path24_fill" transform="translate(-3801 2680)" fill="#FCFCFC"/>
</g>
</g>
<g id="Rectangle 3.11">
<g id="Vector">
<use xlink:href="#path24_fill" transform="translate(-3869 2680)" fill="#FFFFFF"/>
</g>
</g>
<g id="Rectangle 3.12">
<g id="Vector">
<use xlink:href="#path13_fill" transform="translate(-3859.88 2682.91)" fill="#2B6B8F" fill-opacity="0.83"/>
</g>
</g>
<g id="Rectangle 3.13">
<g id="Vector">
<use xlink:href="#path13_fill" transform="translate(-3792.12 2682.91)" fill="#4F84A2"/>
</g>
</g>
<g id="Polygon 2">
<g id="Vector">
<use xlink:href="#path14_fill" transform="matrix(1 0 0 -1 -3847.72 2871.68)" fill="#FAD7BE"/>
</g>
</g>
<g id="Rectangle 3.15">
<g id="Vector">
<use xlink:href="#path15_fill" transform="matrix(6.12086e-17 -1 1 6.12561e-17 -3836.99 2736.84)" fill="#F7B78A"/>
</g>
</g>
<g id="Rectangle 8.4">
<g id="Vector">
<use xlink:href="#path16_fill" transform="translate(-3858.14 2846.45)" fill="#C4C4C4"/>
</g>
</g>
<g id="Rectangle 8.6">
<g id="Vector">
<use xlink:href="#path17_fill" transform="matrix(-1 0 0 1 -3781.7 2844.71)" fill="#FFFFFF"/>
</g>
</g>
<g id="Rectangle 8">
<g id="Vector">
<use xlink:href="#path18_fill" transform="translate(-3858.14 2846.45)" fill="#FFFFFF"/>
</g>
</g>
<g id="Rectangle 8.7">
<g id="Vector">
<use xlink:href="#path16_fill" transform="matrix(-1 0 0 1 -3781.7 2846.45)" fill="#C4C4C4"/>
</g>
</g>
<g id="Rectangle 9">
<g id="Vector">
<use xlink:href="#path19_fill" transform="translate(-3816.45 2877.77)" fill="#C4C4C4"/>
</g>
</g>
<g id="Rectangle 8.8">
<g id="Vector">
<use xlink:href="#path18_fill" transform="matrix(-1 0 0 1 -3781.7 2846.45)" fill="#FFFFFF"/>
</g>
</g>
<g id="Ellipse 3">
<g id="Vector">
<use xlink:href="#path20_fill" transform="translate(-3821.66 2877.77)" fill="#474747"/>
</g>
</g>
<g id="Ellipse 3.3">
<g id="Vector">
<use xlink:href="#path21_fill" transform="matrix(1 0 0 -1 -3819.92 2880.38)" fill="#FFFFFF"/>
</g>
</g>
<g id="Ellipse 3.2">
<g id="Vector">
<use xlink:href="#path20_fill" transform="translate(-3821.66 2902.12)" fill="#474747"/>
</g>
</g>
<g id="Ellipse 3.4">
<g id="Vector">
<use xlink:href="#path21_fill" transform="matrix(1 0 0 -1 -3819.92 2904.73)" fill="#FFFFFF"/>
</g>
</g>
</g>
</g>
</g>
</g>
</g>
<defs>
<path id="path0_fill" d="M 346 173C 346 268.545 268.545 346 173 346C 77.4547 346 0 268.545 0 173C 0 77.4547 77.4547 0 173 0C 268.545 0 346 77.4547 346 173Z"/>
<path id="path1_fill" d="M 173 173C 268.545 173 346 95.5453 346 0L 0 0C 0 95.5453 77.4547 173 173 173Z"/>
<path id="path2_fill" d="M 0 36.9336C 0 16.5357 16.5591 0 36.9858 0L 41.6018 0C 62.0286 0 78.5876 16.5357 78.5876 36.9336L 78.5876 149.688C 78.5876 170.086 62.0286 186.621 41.6018 186.621L 36.9858 186.621C 16.5591 186.621 0 170.086 0 149.688L 0 36.9336Z"/>
<path id="path3_fill" d="M 4.34335 0L 8.68669 4.34949L 0 5.21939L 4.34335 0Z"/>
<path id="path4_fill" d="M 0.269722 -5.58116e-13L 31.5855 0.151708L 31.316 55.746L 0 55.5941L 0.269722 -5.58116e-13Z"/>
<path id="path5_fill" d="M 0 52.1939C 0 23.3679 23.3351 0 52.1202 0L 130.797 0C 159.582 0 182.917 23.3681 182.917 52.1939L 182.917 98.7936C 182.917 149.376 141.97 190.381 91.4585 190.381C 40.9473 190.381 0 149.376 0 98.7936L 0 52.1939Z"/>
<path id="path6_fill" d="M 0.0138034 18.0841C -0.375256 8.21406 7.50984 0 17.3736 0L 146.355 0C 156.188 0 164.062 8.16629 163.717 18.0081L 160.039 122.972C 158.566 165.015 124.104 198.337 82.0942 198.337C 40.2167 198.337 5.81352 165.218 4.16174 123.314L 0.0138034 18.0841Z"/>
<path id="path7_fill" d="M 68.6249 0L 0 3.08909C 3.38976 8.17572 15.9803 20.0077 36.3189 20.0077C 56.6574 20.0077 68.3827 5.08662 68.6249 0Z"/>
<path id="path8_fill" d="M 3.15462 4.91285L 3.07661 3.1748L -7.57514e-08 3.3133L 1.70953 5.8786L 3.15462 4.91285ZM 71.7795 1.82376L 73.5149 1.9066L 73.6056 4.60594e-08L 71.7015 0.085718L 71.7795 1.82376ZM 3.23264 6.65089L 71.8575 3.5618L 71.7015 0.085718L 3.07661 3.1748L 3.23264 6.65089ZM 70.0441 1.74092C 70.0069 2.52292 69.4511 4.08048 68.0579 6.11039C 66.6766 8.12998 64.7282 10.2811 62.0839 12.3713C 56.747 16.6202 49.2679 20.1327 39.4735 20.0916L 39.4735 23.5712C 50.0178 23.5301 58.5705 19.5822 64.2414 15.0988C 67.101 12.823 69.4006 10.2901 70.9214 8.08137C 72.4303 5.88296 73.431 3.66791 73.5149 1.9066L 70.0441 1.74092ZM 39.4735 20.0916C 19.8158 20.0916 7.72714 8.64005 4.59972 3.94709L 1.70953 5.8786C 5.36164 11.3589 18.4541 23.5712 39.4735 23.5712L 39.4735 20.0916Z"/>
<path id="path9_fill" d="M 6.56668 10.0468C 2.8492 9.71445 1.12235e-05 6.59513 6.52183e-12 2.85756C -2.30926e-06 2.08856 0.602001 1.45454 1.36896 1.41582L 29.2622 0.00766548C 30.7523 -0.0675553 32.2172 0.41293 33.3741 1.35628C 37.9859 5.11697 34.9533 12.5849 29.0295 12.0553L 6.56668 10.0468Z"/>
<path id="path10_fill" d="M 5.82227 9.21757C 2.51099 8.86229 1.12406e-05 6.06396 7.67749e-12 2.72902C -2.34344e-06 2.03376 0.544271 1.46054 1.23768 1.42553L 29.3277 0.00744872C 30.7756 -0.065645 32.1991 0.401254 33.3232 1.31793C 37.8464 5.00619 34.798 12.3265 28.9984 11.7042L 5.82227 9.21757Z"/>
<path id="path11_fill" d="M 18.1837 39.1784C 4.47101 36.845 -3.59356 22.4348 1.57679 9.50389C 2.20774 7.92589 3.69487 6.85722 5.38969 6.76387L 127.397 0.0435219C 135.04 -0.377479 142.535 2.26935 148.224 7.3982C 169.637 26.7027 152.562 62.0432 124.158 57.21L 18.1837 39.1784Z"/>
<path id="path12_fill" d="M 0 6.95918C 0 3.11573 3.11133 0 6.94935 0L 17.3734 0C 21.2113 0 24.3227 3.11573 24.3227 6.95918C 24.3227 10.8026 21.2113 13.9184 17.3734 13.9184L 6.94935 13.9184C 3.11133 13.9184 0 10.8026 0 6.95918Z"/>
<path id="path13_fill" d="M 0 3.47959C 0 1.55787 1.55567 0 3.47468 0C 5.39369 0 6.94935 1.55787 6.94935 3.47959C 6.94935 5.40132 5.39369 6.95918 3.47468 6.95918C 1.55567 6.95918 0 5.40132 0 3.47959Z"/>
<path id="path14_fill" d="M 27.7974 0L 55.5948 26.9668L 0 26.9668L 27.7974 0Z"/>
<path id="path15_fill" d="M 0 8.70368C 0 1.19503 8.89572 -2.77672 14.4994 2.23003L 33.0561 18.81L 0 18.81L 0 8.70368Z"/>
<path id="path16_fill" d="M 0 0L 8.68669 0L 38.2215 29.5765L 23.4541 44.3648L 0 0Z"/>
<path id="path17_fill" d="M 0 0L 10.424 0L 36.4841 25.5987L 21.4624 40.6545L 0 0Z"/>
<path id="path18_fill" d="M 0 0L 8.68669 0L 38.2215 25.5987L 23.1997 40.6545L 0 0Z"/>
<path id="path19_fill" d="M 0 0L 1.73734 0L 1.73734 45.2347L 0 45.2347L 0 0Z"/>
<path id="path20_fill" d="M 3.47468 1.7398C 3.47468 2.70065 2.69684 3.47959 1.73734 3.47959C 0.777833 3.47959 0 2.70065 0 1.7398C 0 0.778933 0.777833 0 1.73734 0C 2.69684 0 3.47468 0.778933 3.47468 1.7398Z"/>
<path id="path21_fill" d="M 0.868669 0.434949C 0.868669 0.675164 0.674211 0.869898 0.434335 0.869898C 0.194459 0.869898 0 0.675164 0 0.434949C 0 0.194734 0.194459 0 0.434335 0C 0.674211 0 0.868669 0.194734 0.868669 0.434949Z"/>
<path id="path22_fill" d="M 5.59945 6.75125C 2.41489 6.44342 1.08104e-05 4.01887 7.27788e-12 1.12938C -2.25375e-06 0.526987 0.523442 0.0303306 1.19031 0L 28 0.456299C 30.8395 0.635058 31.919 1.16182 33 1.95605C 37.3501 5.15167 33.4663 10.4946 27.8887 9.9554L 5.59945 6.75125Z"/>
<path id="path23_fill" d="M 5.59945 6.75125C 2.41489 6.44342 1.08104e-05 4.01887 7.27788e-12 1.12938C -2.25375e-06 0.526987 0.523442 0.0303306 1.19031 0L 29 0.5C 31.8395 0.67876 32.919 0.705763 34 1.5C 38.3501 4.69561 33.4663 10.4946 27.8887 9.9554L 5.59945 6.75125Z"/>
<path id="path24_fill" d="M 0 5.5C 0 2.46243 3.19796 0 7.14286 0L 17.8571 0C 21.802 0 25 2.46243 25 5.5C 25 8.53757 21.802 11 17.8571 11L 7.14286 11C 3.19796 11 0 8.53757 0 5.5Z"/>
</defs>
</svg>
