<svg width="189" height="196" viewBox="0 0 189 196" version="1.1" xmlns="http://www.w3.org/2000/svg" xmlns:xlink="http://www.w3.org/1999/xlink">
<title>Group 6</title>
<desc>Created using Figma</desc>
<g id="Canvas" transform="translate(847 2567)">
<g id="Group 6">
<g id="Ellipse">
<use xlink:href="#path0_fill" transform="translate(-847 -2567)" fill="#F7F7F7"/>
</g>
<g id="Group 5">
<g id="Rectangle 5.3">
<use xlink:href="#path1_fill" transform="matrix(0.00485233 0.999988 -0.999988 0.00484239 -699.583 -2417)" fill="#FFFFFF"/>
</g>
<g id="Rectangle 9">
<use xlink:href="#path2_fill" transform="translate(-756.5 -2400.5)" fill="#C4C4C4"/>
</g>
<g id="Rectangle 5.2">
<use xlink:href="#path3_fill" transform="matrix(0.00485233 0.999988 -0.999988 0.00484239 -738.001 -2434.16)" fill="#FAD7BE"/>
</g>
<g id="Rectangle">
<use xlink:href="#path4_fill" transform="translate(-806 -2567)" fill="#F8D006"/>
</g>
<g id="Rectangle">
<use xlink:href="#path5_fill" transform="translate(-801 -2543)" fill="#F7DAC6"/>
</g>
<g id="Vector 3.2">
<use xlink:href="#path6_fill" transform="translate(-773 -2466.5)" fill="#FFFFFF"/>
</g>
<g id="Rectangle 4.1">
<use xlink:href="#path7_fill" transform="matrix(-1 0 0 -1 -726 -2517)" fill="#F8D006"/>
</g>
<g id="Rectangle 4.3">
<use xlink:href="#path8_fill" transform="matrix(1 0 0 -1 -786 -2517)" fill="#F8D006"/>
</g>
<g id="Rectangle 4.2">
<use xlink:href="#path9_fill" transform="translate(-799.619 -2562.3)" fill="#F8D006"/>
</g>
<g id="Rectangle 3.10">
<use xlink:href="#path10_fill" transform="translate(-743 -2511)" fill="#FCFCFC"/>
</g>
<g id="Rectangle 3.11">
<use xlink:href="#path10_fill" transform="translate(-782 -2511)" fill="#FFFFFF"/>
</g>
<g id="Rectangle 3.12">
<use xlink:href="#path11_fill" transform="translate(-777 -2509)" fill="#2B6B8F" fill-opacity="0.83"/>
</g>
<g id="Rectangle 3.13">
<use xlink:href="#path11_fill" transform="translate(-738 -2509)" fill="#4F84A2"/>
</g>
<g id="Polygon 2">
<use xlink:href="#path12_fill" transform="matrix(1 0 0 -1 -770 -2400.5)" fill="#FAD7BE"/>
</g>
<g id="Rectangle 3.15">
<use xlink:href="#path13_fill" transform="matrix(6.12952e-17 -1 1 6.11696e-17 -768 -2478)" fill="#F7B78A"/>
</g>
<g id="Rectangle 8.4">
<use xlink:href="#path14_fill" transform="translate(-776 -2415)" fill="#C4C4C4"/>
</g>
<g id="Rectangle 8.6">
<use xlink:href="#path15_fill" transform="matrix(-1 0 0 1 -732 -2416)" fill="#FFFFFF"/>
</g>
<g id="Rectangle 8">
<use xlink:href="#path16_fill" transform="translate(-776 -2415)" fill="#FFFFFF"/>
</g>
<g id="Rectangle 8.7">
<use xlink:href="#path14_fill" transform="matrix(-1 0 0 1 -732 -2415)" fill="#C4C4C4"/>
</g>
<g id="Rectangle 9">
<use xlink:href="#path17_fill" transform="translate(-752 -2397)" fill="#C4C4C4"/>
</g>
<g id="Rectangle 8.8">
<use xlink:href="#path16_fill" transform="matrix(-1 0 0 1 -732 -2415)" fill="#FFFFFF"/>
</g>
<g id="Ellipse 3">
<use xlink:href="#path18_fill" transform="translate(-755 -2397)" fill="#474747"/>
</g>
<g id="Ellipse 3.3">
<use xlink:href="#path19_fill" transform="matrix(1 0 0 -1 -754 -2395.5)" fill="#FFFFFF"/>
</g>
<g id="Ellipse 3.2">
<use xlink:href="#path20_fill" transform="translate(-755 -2383)" fill="#474747"/>
</g>
<g id="Ellipse 3.4">
<use xlink:href="#path19_fill" transform="matrix(1 0 0 -1 -754 -2381.5)" fill="#FFFFFF"/>
</g>
</g>
</g>
</g>
<defs>
<path id="path0_fill" d="M 189 94.5C 189 146.691 146.691 189 94.5 189C 42.3091 189 0 146.691 0 94.5C 0 42.3091 42.3091 0 94.5 0C 146.691 0 189 42.3091 189 94.5Z"/>
<path id="path1_fill" d="M 0 21.2587C 0 9.51786 9.51786 0 21.2587 0L 23.9119 0C 35.6528 0 45.1706 9.51785 45.1706 21.2587L 45.1706 86.1593C 45.1706 97.9001 35.6528 107.418 23.9119 107.418L 21.2587 107.418C 9.51785 107.418 0 97.9002 0 86.1593L 0 21.2587Z"/>
<path id="path2_fill" d="M 2.5 0L 5 2.5L 0 3L 2.5 0Z"/>
<path id="path3_fill" d="M 0.155031 1.98407e-05L 18.1547 0.087342L 17.9998 32.087L 0 31.9996L 0.155031 1.98407e-05Z"/>
<path id="path4_fill" d="M 0 30C 0 13.4314 13.4315 0 30 0L 75.2857 0C 91.8542 0 105.286 13.4315 105.286 30L 105.286 56.7846C 105.286 85.8584 81.7167 109.427 52.6429 109.427C 23.569 109.427 0 85.8584 0 56.7846L 0 30Z"/>
<path id="path5_fill" d="M 0.410306 10.3944C 0.186366 4.72128 4.72497 0 10.4025 0L 84.643 0C 90.3033 0 94.8353 4.69382 94.6368 10.3507L 92.5199 70.6818C 91.672 94.8476 71.8359 114 47.6552 114C 23.5508 114 3.74858 94.9641 2.79783 70.8784L 0.410306 10.3944Z"/>
<path id="path6_fill" d="M 39.5 0L 0 1.77555C 1.95112 4.69924 9.19815 11.5 20.9049 11.5C 32.6116 11.5 39.3606 2.92369 39.5 0Z"/>
<path id="path7_fill" d="M 3.77974 5.83748C 1.63998 5.64643 8.83266e-06 3.85351 2.37252e-06 1.70523C 1.04332e-06 1.26322 0.34651 0.898799 0.787965 0.876544L 16.8431 0.0671648C 17.7008 0.0239294 18.544 0.300103 19.2099 0.842324C 21.8644 3.00389 20.1189 7.29633 16.7092 6.99189L 3.77974 5.83748Z"/>
<path id="path8_fill" d="M 3.35126 5.35906C 1.44531 5.15485 8.87763e-06 3.54643 2.40763e-06 1.62957C 1.05876e-06 1.22995 0.313281 0.900474 0.712402 0.880353L 16.8808 0.0652656C 17.7142 0.0232528 18.5336 0.291617 19.1806 0.818505C 21.7841 2.93844 20.0295 7.14602 16.6913 6.78835L 3.35126 5.35906Z"/>
<path id="path9_fill" d="M 15.3444 22.872C 7.45146 21.5308 2.80955 13.2481 5.78557 5.81566C 6.14874 4.90866 7.00472 4.29441 7.98025 4.24075L 78.2066 0.37803C 82.606 0.136047 86.9204 1.65739 90.1949 4.60535C 102.52 15.7012 92.6918 36.0142 76.3422 33.2362L 15.3444 22.872Z"/>
<path id="path10_fill" d="M 0 4C 0 1.79086 1.79086 0 4 0L 10 0C 12.2091 0 14 1.79086 14 4C 14 6.20914 12.2091 8 10 8L 4 8C 1.79086 8 0 6.20914 0 4Z"/>
<path id="path11_fill" d="M 0 2C 0 0.895431 0.895431 0 2 0C 3.10457 0 4 0.895431 4 2C 4 3.10457 3.10457 4 2 4C 0.895431 4 0 3.10457 0 2Z"/>
<path id="path12_fill" d="M 16 0L 32 15.5L 0 15.5L 16 0Z"/>
<path id="path13_fill" d="M 0 9.71595C 0 5.64908 4.59685 3.28346 7.90619 5.64728L 21 15L 0 15L 0 9.71595Z"/>
<path id="path14_fill" d="M 0 0L 5 0L 22 17L 13.5 25.5L 0 0Z"/>
<path id="path15_fill" d="M 0 0L 6 0L 21 14.7136L 12.3536 23.3674L 0 0Z"/>
<path id="path16_fill" d="M 0 0L 5 0L 22 14.7136L 13.3536 23.3674L 0 0Z"/>
<path id="path17_fill" d="M 0 0L 1 0L 1 26L 0 26L 0 0Z"/>
<path id="path18_fill" d="M 2 1C 2 1.55228 1.55228 2 1 2C 0.447715 2 0 1.55228 0 1C 0 0.447715 0.447715 0 1 0C 1.55228 0 2 0.447715 2 1Z"/>
<path id="path19_fill" d="M 0.5 0.25C 0.5 0.388071 0.388071 0.5 0.25 0.5C 0.111929 0.5 0 0.388071 0 0.25C 0 0.111929 0.111929 0 0.25 0C 0.388071 0 0.5 0.111929 0.5 0.25Z"/>
<path id="path20_fill" d="M 2 1C 2 1.55228 1.55228 2 1 2C 0.447715 2 0 1.55228 0 1C 0 0.447715 0.447715 0 1 0C 1.55228 0 2 0.447715 2 1Z"/>
</defs>
</svg>
