<svg width="458" height="923" viewBox="0 0 458 923" version="1.1" xmlns="http://www.w3.org/2000/svg" xmlns:xlink="http://www.w3.org/1999/xlink">
<title>Group 2</title>
<desc>Created using Figma</desc>
<g id="Canvas" transform="translate(2895 95)">
<g id="Group 2">
<g id="Rectangle">
<use xlink:href="#path0_fill" transform="translate(-2893 -95)" fill="#FFFFFF"/>
</g>
<g id="Rectangle" filter="url(#filter0_i)">
<use xlink:href="#path1_fill" transform="translate(-2893 -95)" fill="#FFFFFF"/>
</g>
<g id="Rectangle 2">
<use xlink:href="#path2_fill" transform="translate(-2876 -76)" fill="#F2F2F2"/>
</g>
<g id="Rectangle 4">
<use xlink:href="#path3_fill" transform="translate(-2895 10)" fill="#FFFFFF"/>
</g>
<g id="Rectangle 4.1">
<use xlink:href="#path4_fill" transform="translate(-2895 111)" fill="#FFFFFF"/>
</g>
<g id="Rectangle 4.3">
<use xlink:href="#path4_fill" transform="translate(-2439 71)" fill="#FFFFFF"/>
</g>
<g id="Rectangle 4.2">
<use xlink:href="#path4_fill" transform="translate(-2895 175)" fill="#FFFFFF"/>
</g>
<g id="Rectangle 5">
<use xlink:href="#path5_fill" transform="translate(-2786 -76)" fill="#FEFEFE"/>
</g>
</g>
</g>
<defs>
<filter id="filter0_i" filterUnits="userSpaceOnUse" x="-2893" y="-95" width="454" height="924" color-interpolation-filters="sRGB">
<feFlood flood-opacity="0" result="BackgroundImageFix"/>
<feBlend mode="normal" in="SourceGraphic" in2="BackgroundImageFix" result="shape"/>
<feColorMatrix in="SourceAlpha" type="matrix" values="0 0 0 0 0 0 0 0 0 0 0 0 0 0 0 0 0 0 255 0" result="hardAlpha"/>
<feOffset dx="0" dy="0"/>
<feGaussianBlur stdDeviation="6"/>
<feComposite in2="hardAlpha" operator="arithmetic" k2="-1" k3="1"/>
<feColorMatrix type="matrix" values="0 0 0 0 0.94 0 0 0 0 0.94 0 0 0 0 0.94 0 0 0 1 0"/>
<feBlend mode="normal" in2="shape" result="effect1_innerShadow"/>
</filter>
<path id="path0_fill" d="M 0 50C 0 22.3858 22.3858 0 50 0L 404 0C 431.614 0 454 22.3858 454 50L 454 873C 454 900.614 431.614 923 404 923L 50 923C 22.3858 923 0 900.614 0 873L 0 50Z"/>
<path id="path1_fill" d="M 0 50C 0 22.3858 22.3858 0 50 0L 404 0C 431.614 0 454 22.3858 454 50L 454 873C 454 900.614 431.614 923 404 923L 50 923C 22.3858 923 0 900.614 0 873L 0 50Z"/>
<path id="path2_fill" d="M 0 37C 0 16.5655 16.5655 0 37 0L 383 0C 403.435 0 420 16.5655 420 37L 420 849C 420 869.435 403.435 886 383 886L 37 886C 16.5655 886 0 869.435 0 849L 0 37Z"/>
<path id="path3_fill" d="M 0 0L 2 0L 2 20L 0 20L 0 0Z"/>
<path id="path4_fill" d="M 0 0L 2 0L 2 40L 0 40L 0 0Z"/>
<path id="path5_fill" d="M 0 0L 240 0L 240 0C 240 22.0914 222.091 40 200 40L 40 40C 17.9086 40 0 22.0914 0 0L 0 0Z"/>
</defs>
</svg>
