<svg width="189" height="218" viewBox="0 0 189 218" version="1.1" xmlns="http://www.w3.org/2000/svg" xmlns:xlink="http://www.w3.org/1999/xlink">
<title>Group 7</title>
<desc>Created using Figma</desc>
<g id="Canvas" transform="translate(1091 2589)">
<g id="Group 7">
<g id="Ellipse">
<use xlink:href="#path0_fill" transform="translate(-1091 -2567)" fill="#F7F7F7"/>
</g>
<g id="Group 2">
<g id="Ellipse">
<use xlink:href="#path1_fill" transform="translate(-1043.68 -2589)" fill="#F5DC00"/>
</g>
<g id="Ellipse">
<use xlink:href="#path2_fill" transform="translate(-1023.98 -2576.78)" fill="#F5DC00"/>
</g>
<g id="Rectangle">
<use xlink:href="#path3_fill" transform="translate(-1046.5 -2542.02)" fill="#3B2C20"/>
</g>
<g id="Rectangle">
<use xlink:href="#path4_fill" transform="translate(-1040.87 -2535.44)" fill="#F7CBAC"/>
</g>
<g id="Rectangle 3">
<use xlink:href="#path5_fill" transform="translate(-1026.83 -2523.56)" fill="#3B2C20"/>
</g>
<g id="Rectangle 3.1">
<use xlink:href="#path6_fill" transform="translate(-982.713 -2523.56)" fill="#3B2C20"/>
</g>
<g id="Rectangle 3.2">
<use xlink:href="#path7_fill" transform="translate(-979.899 -2510.07)" fill="#FCFCFC"/>
</g>
<g id="Rectangle 3.7">
<use xlink:href="#path8_fill" transform="translate(-974.271 -2509.13)" fill="#39918C" fill-opacity="0.83"/>
</g>
<g id="Rectangle 3.15">
<use xlink:href="#path7_fill" transform="translate(-1023.05 -2510.07)" fill="#FCFCFC"/>
</g>
<g id="Rectangle 3.16">
<use xlink:href="#path8_fill" transform="translate(-1017.42 -2509.13)" fill="#39918C" fill-opacity="0.83"/>
</g>
<g id="Rectangle 3.5">
<use xlink:href="#path9_fill" transform="matrix(6.11235e-17 -1 1 6.13414e-17 -1010.85 -2470.6)" fill="#F7B78A"/>
</g>
<g id="Vector 3">
<use xlink:href="#path10_fill" transform="translate(-1014.6 -2468.72)" fill="#FFFFFF"/>
</g>
<g id="Vector 2">
<use xlink:href="#path11_stroke" transform="translate(-1032.43 -2587.12)" fill="#E6CF00"/>
</g>
<g id="Vector 2.1">
<use xlink:href="#path12_stroke" transform="translate(-1011.79 -2587.12)" fill="#E6CF00"/>
</g>
<g id="Vector 2.2">
<use xlink:href="#path13_stroke" transform="matrix(-1 0 0 1 -957.388 -2587.12)" fill="#E6CF00"/>
</g>
<g id="Vector 2.3">
<use xlink:href="#path12_stroke" transform="matrix(-1 0 0 1 -978.023 -2587.12)" fill="#E6CF00"/>
</g>
<g id="Rectangle 4">
<use xlink:href="#path14_fill" transform="translate(-1054 -2555.17)" fill="#E6CF00"/>
</g>
<g id="Ellipse 2">
<use xlink:href="#path15_fill" transform="translate(-1038.99 -2412.34)" fill="#C4C4C4"/>
</g>
<g id="Ellipse 2.1">
<use xlink:href="#path15_fill" transform="translate(-990.396 -2412.34)" fill="#C4C4C4"/>
</g>
<g id="Rectangle 6">
<use xlink:href="#path16_fill" transform="translate(-1017.55 -2412.34)" fill="#C4C4C4"/>
</g>
<g id="Ellipse 3">
<mask id="mask0_outline_ins">
<use xlink:href="#path17_fill" fill="white" transform="translate(-955.512 -2506.31)"/>
</mask>
<g mask="url(#mask0_outline_ins)">
<use xlink:href="#path18_stroke_2x" transform="translate(-955.512 -2506.31)" fill="#F7CBAC"/>
</g>
</g>
<g id="Ellipse 3.1">
<mask id="mask1_outline_ins">
<use xlink:href="#path17_fill" fill="white" transform="translate(-1050.25 -2506.31)"/>
</mask>
<g mask="url(#mask1_outline_ins)">
<use xlink:href="#path18_stroke_2x" transform="translate(-1050.25 -2506.31)" fill="#F7CBAC"/>
</g>
</g>
<g id="Group">
<g id="Ellipse 4">
<use xlink:href="#path19_fill" transform="matrix(-1 0 0 1 -1037.12 -2502.55)" fill="#FFFFFF"/>
</g>
<g id="Rectangle 8">
<use xlink:href="#path20_fill" transform="matrix(-1 0 0 1 -1039.93 -2494.09)" fill="#FFFFFF"/>
</g>
<g id="Rectangle 9">
<use xlink:href="#path21_fill" transform="matrix(-1 0 0 1 -1039.93 -2480.94)" fill="#C4C4C4"/>
</g>
</g>
<g id="Rectangle 8">
<use xlink:href="#path22_fill" transform="translate(-1039.93 -2502.55)" fill="#F7CBAC"/>
</g>
<g id="Ellipse 4">
<use xlink:href="#path19_fill" transform="translate(-951.76 -2502.55)" fill="#FFFFFF"/>
</g>
<g id="Rectangle 8.1">
<use xlink:href="#path20_fill" transform="translate(-948.946 -2494.09)" fill="#FFFFFF"/>
</g>
<g id="Rectangle 9">
<use xlink:href="#path21_fill" transform="translate(-948.946 -2480.94)" fill="#C4C4C4"/>
</g>
<g id="Rectangle 8.2">
<use xlink:href="#path22_fill" transform="matrix(-1 0 0 1 -948.946 -2502.55)" fill="#F7CBAC"/>
</g>
<g id="Rectangle 10">
<use xlink:href="#path23_fill" transform="translate(-1003.35 -2432.08)" fill="#F7CBAC"/>
</g>
<g id="Rectangle 11">
<use xlink:href="#path24_fill" transform="translate(-1013.67 -2473.42)" fill="#808080"/>
</g>
<g id="Vector 4">
<use xlink:href="#path25_fill" transform="translate(-1015.54 -2473.42)" fill="#808080"/>
</g>
<g id="Vector 4.1">
<use xlink:href="#path25_fill" transform="matrix(-1 0 0 1 -973.333 -2473.42)" fill="#808080"/>
</g>
</g>
</g>
</g>
<defs>
<path id="path0_fill" d="M 189 94.5C 189 146.691 146.691 189 94.5 189C 42.3091 189 0 146.691 0 94.5C 0 42.3091 42.3091 0 94.5 0C 146.691 0 189 42.3091 189 94.5Z"/>
<path id="path1_fill" d="M 99.4264 43.2241C 99.4264 67.0962 77.169 86.4483 49.7132 86.4483C 22.2573 86.4483 0 67.0962 0 43.2241C 0 19.3521 22.2573 0 49.7132 0C 77.169 0 99.4264 19.3521 99.4264 43.2241Z"/>
<path id="path2_fill" d="M 81.6047 35.7069C 81.6047 55.4273 63.3368 71.4138 40.8023 71.4138C 18.2678 71.4138 0 55.4273 0 35.7069C 0 15.9865 18.2678 0 40.8023 0C 63.3368 0 81.6047 15.9865 81.6047 35.7069Z"/>
<path id="path3_fill" d="M 0 0L 105.054 0L 105.054 28.2832C 105.054 57.2931 81.537 80.8103 52.5271 80.8103C 23.5172 80.8103 0 57.2932 0 28.2832L 0 0Z"/>
<path id="path4_fill" d="M 0 10C 0 4.47715 4.47715 0 10 0L 83.7984 0C 89.3213 0 93.7984 4.47715 93.7984 10L 93.7984 57.115C 93.7984 64.0625 92.323 70.9309 89.4698 77.2655L 88.6351 79.1187C 81.2162 95.5898 64.8297 106.181 46.7649 106.181C 28.3597 106.181 11.7326 95.1919 4.51824 78.2596L 3.87386 76.7472C 1.31765 70.7477 0 64.2936 0 57.7722L 0 10Z"/>
<path id="path5_fill" d="M 0.0294789 5.97418C 0.759082 -2.06574 20.6651 0.335932 20.6651 0.335932L 20.6651 7.85349L 0.0294789 7.85349C 0.0294789 7.85349 -0.0368486 6.70508 0.0294789 5.97418Z"/>
<path id="path6_fill" d="M 0 0.335853C 0 0.335853 19.9061 -2.06567 20.6357 5.97425C 20.702 6.70515 20.6357 7.85356 20.6357 7.85356L 0 7.85356L 0 0.335853Z"/>
<path id="path7_fill" d="M 0 2.81897C 0 1.26209 1.26209 0 2.81896 0L 12.1888 0C 13.7457 0 15.0078 1.26209 15.0078 2.81897C 15.0078 4.37584 13.7457 5.63793 12.1888 5.63793L 2.81896 5.63793C 1.26209 5.63793 0 4.37584 0 2.81897Z"/>
<path id="path8_fill" d="M 0 1.87597C 0 0.8399 0.8399 0 1.87597 0C 2.91204 0 3.75194 0.8399 3.75194 1.87597L 3.75194 1.88265C 3.75194 2.91872 2.91204 3.75862 1.87597 3.75862C 0.8399 3.75862 0 2.91872 0 1.88265L 0 1.87597Z"/>
<path id="path9_fill" d="M 7.98707 18.7597C 5.54758 13.0299 11.9616 7.58118 17.2216 10.9149L 29.5991 18.7597L 7.98707 18.7597Z"/>
<path id="path10_fill" d="M 39.3953 0L 0 0C 2.16288 3.39013 10.1964 11.2759 23.1737 11.2759C 36.151 11.2759 39.2409 3.39013 39.3953 0Z"/>
<path id="path11_stroke" d="M -0.47973 32.747C -0.55756 33.012 -0.405871 33.2898 -0.140923 33.3677C 0.124024 33.4455 0.4019 33.2938 0.47973 33.0289L -0.47973 32.747ZM 35.6004 0.525057C 35.8756 0.548789 36.1178 0.344998 36.1416 0.0698777C 36.1653 -0.205243 35.9615 -0.447511 35.6864 -0.471243L 35.6004 0.525057ZM 0.47973 33.0289C 5.59148 15.6275 14.4163 7.52867 21.9071 3.76128C 25.6608 1.87344 29.0959 1.06504 31.5888 0.728385C 32.8352 0.56008 33.8451 0.509816 34.5402 0.501371C 34.8877 0.497149 35.1564 0.503381 35.3364 0.510516C 35.4264 0.514083 35.4943 0.517876 35.5387 0.520698C 35.5609 0.522109 35.5772 0.523278 35.5876 0.524054C 35.5928 0.524442 35.5964 0.524733 35.5986 0.524906C 35.5996 0.524993 35.6003 0.52505 35.6007 0.525076C 35.6008 0.525089 35.6008 0.525085 35.6008 0.525091C 35.6007 0.525079 35.6004 0.525057 35.6434 0.0269073C 35.6864 -0.471243 35.6859 -0.471281 35.6854 -0.471326C 35.6851 -0.471352 35.6845 -0.471406 35.6838 -0.471457C 35.6826 -0.47156 35.681 -0.471693 35.679 -0.471855C 35.675 -0.472177 35.6695 -0.472613 35.6624 -0.473142C 35.6483 -0.4742 35.6282 -0.475633 35.6021 -0.477289C 35.55 -0.480602 35.4742 -0.484809 35.376 -0.488699C 35.1797 -0.49648 34.8938 -0.502998 34.5281 -0.498555C 33.7968 -0.489671 32.7459 -0.436948 31.455 -0.26262C 28.8735 0.085989 25.3281 0.921433 21.4578 2.8679C 13.7008 6.76915 4.70394 15.1008 -0.47973 32.747L 0.47973 33.0289Z"/>
<path id="path12_stroke" d="M -0.496965 41.2898C -0.527344 41.5643 -0.329473 41.8114 -0.0550068 41.8418C 0.219459 41.8722 0.466586 41.6743 0.496965 41.3998L -0.496965 41.2898ZM 16.7721 0.521218C 17.0413 0.582841 17.3095 0.414584 17.3711 0.145405C 17.4327 -0.123774 17.2645 -0.391942 16.9953 -0.453565L 16.7721 0.521218ZM -0.496965 41.2898C -0.527344 41.5643 -0.329473 41.8114 -0.0550068 41.8418C 0.219459 41.8722 0.466586 41.6743 0.496965 41.3998L -0.496965 41.2898ZM 16.7721 0.521218C 17.0413 0.582841 17.3095 0.414584 17.3711 0.145405C 17.4327 -0.123774 17.2645 -0.391942 16.9953 -0.453565L 16.7721 0.521218ZM 0.496965 41.3998C 2.93255 19.3953 7.14144 9.17759 10.6708 4.46671C 12.4285 2.12064 14.006 1.15557 15.1001 0.763451C 15.6492 0.566667 16.0855 0.510824 16.3744 0.50151C 16.5191 0.496843 16.6276 0.503841 16.6954 0.51097C 16.7293 0.514535 16.753 0.518134 16.766 0.520324C 16.7725 0.521419 16.7763 0.522162 16.7773 0.522371C 16.7779 0.522476 16.7777 0.522447 16.7768 0.522262C 16.7764 0.52217 16.7758 0.522039 16.775 0.521865C 16.7746 0.521779 16.7739 0.521618 16.7737 0.521574C 16.7729 0.521402 16.7721 0.521218 16.8837 0.0338264C 16.9953 -0.453565 16.9944 -0.45377 16.9935 -0.453983C 16.9931 -0.454068 16.9921 -0.454291 16.9913 -0.454458C 16.9898 -0.454794 16.9881 -0.455165 16.9862 -0.455569C 16.9825 -0.456377 16.9779 -0.457318 16.9727 -0.458367C 16.9621 -0.460464 16.9486 -0.462991 16.9323 -0.465753C 16.8995 -0.471275 16.8552 -0.477733 16.8 -0.483543C 16.6895 -0.495166 16.5352 -0.504196 16.3422 -0.49797C 15.9553 -0.485498 15.4155 -0.411872 14.7627 -0.177917C 13.4531 0.291443 11.7242 1.39291 9.8705 3.86712C 6.1772 8.79681 1.94423 19.2346 -0.496965 41.2898L 0.496965 41.3998ZM 0.496965 41.3998C 2.93255 19.3953 7.14144 9.17759 10.6708 4.46671C 12.4285 2.12064 14.006 1.15557 15.1001 0.763451C 15.6492 0.566667 16.0855 0.510824 16.3744 0.50151C 16.5191 0.496843 16.6276 0.503841 16.6954 0.51097C 16.7293 0.514535 16.753 0.518134 16.766 0.520324C 16.7725 0.521419 16.7763 0.522162 16.7773 0.522371C 16.7779 0.522476 16.7777 0.522447 16.7768 0.522262C 16.7764 0.52217 16.7758 0.522039 16.775 0.521865C 16.7746 0.521779 16.7739 0.521618 16.7737 0.521574C 16.7729 0.521402 16.7721 0.521218 16.8837 0.0338264C 16.9953 -0.453565 16.9944 -0.45377 16.9935 -0.453983C 16.9931 -0.454068 16.9921 -0.454291 16.9913 -0.454458C 16.9898 -0.454794 16.9881 -0.455165 16.9862 -0.455569C 16.9825 -0.456377 16.9779 -0.457318 16.9727 -0.458367C 16.9621 -0.460464 16.9486 -0.462991 16.9323 -0.465753C 16.8995 -0.471275 16.8552 -0.477733 16.8 -0.483543C 16.6895 -0.495166 16.5352 -0.504196 16.3422 -0.49797C 15.9553 -0.485498 15.4155 -0.411872 14.7627 -0.177917C 13.4531 0.291443 11.7242 1.39291 9.8705 3.86712C 6.1772 8.79681 1.94423 19.2346 -0.496965 41.2898L 0.496965 41.3998Z"/>
<path id="path13_stroke" d="M -0.47973 32.747C -0.55756 33.012 -0.405871 33.2898 -0.140923 33.3677C 0.124024 33.4455 0.4019 33.2938 0.47973 33.0289L -0.47973 32.747ZM 35.6004 0.525057C 35.8756 0.548789 36.1178 0.344998 36.1416 0.0698777C 36.1653 -0.205243 35.9615 -0.447511 35.6864 -0.471243L 35.6004 0.525057ZM -0.47973 32.747C -0.55756 33.012 -0.405871 33.2898 -0.140923 33.3677C 0.124024 33.4455 0.4019 33.2938 0.47973 33.0289L -0.47973 32.747ZM 35.6004 0.525057C 35.8756 0.548789 36.1178 0.344998 36.1416 0.0698777C 36.1653 -0.205243 35.9615 -0.447511 35.6864 -0.471243L 35.6004 0.525057ZM 0.47973 33.0289C 5.59148 15.6275 14.4163 7.52867 21.9071 3.76128C 25.6608 1.87344 29.0959 1.06504 31.5888 0.728385C 32.8352 0.56008 33.8451 0.509816 34.5402 0.501371C 34.8877 0.497149 35.1564 0.503381 35.3364 0.510516C 35.4264 0.514083 35.4943 0.517876 35.5387 0.520698C 35.5609 0.522109 35.5772 0.523278 35.5876 0.524054C 35.5928 0.524442 35.5964 0.524733 35.5986 0.524906C 35.5997 0.524993 35.6003 0.52505 35.6007 0.525076C 35.6008 0.525089 35.6008 0.525085 35.6008 0.525091C 35.6007 0.525079 35.6004 0.525057 35.6434 0.0269073C 35.6864 -0.471243 35.6859 -0.471281 35.6854 -0.471326C 35.6851 -0.471352 35.6845 -0.471406 35.6838 -0.471457C 35.6826 -0.47156 35.681 -0.471693 35.679 -0.471855C 35.675 -0.472177 35.6695 -0.472613 35.6624 -0.473142C 35.6483 -0.4742 35.6282 -0.475633 35.6021 -0.477289C 35.55 -0.480602 35.4742 -0.484809 35.376 -0.488699C 35.1797 -0.49648 34.8938 -0.502998 34.5281 -0.498555C 33.7968 -0.489671 32.7459 -0.436947 31.455 -0.26262C 28.8735 0.0859896 25.3281 0.921434 21.4578 2.8679C 13.7008 6.76915 4.70394 15.1008 -0.47973 32.747L 0.47973 33.0289ZM 0.47973 33.0289C 5.59148 15.6275 14.4163 7.52867 21.9071 3.76128C 25.6608 1.87344 29.0959 1.06504 31.5888 0.728385C 32.8352 0.56008 33.8451 0.509816 34.5402 0.501371C 34.8877 0.497149 35.1564 0.503381 35.3364 0.510516C 35.4264 0.514083 35.4943 0.517876 35.5387 0.520698C 35.5609 0.522109 35.5772 0.523278 35.5876 0.524054C 35.5928 0.524442 35.5964 0.524733 35.5986 0.524906C 35.5997 0.524993 35.6003 0.52505 35.6007 0.525076C 35.6008 0.525089 35.6008 0.525085 35.6008 0.525091C 35.6007 0.525079 35.6004 0.525057 35.6434 0.0269073C 35.6864 -0.471243 35.6859 -0.471281 35.6854 -0.471326C 35.6851 -0.471352 35.6845 -0.471406 35.6838 -0.471457C 35.6826 -0.47156 35.681 -0.471693 35.679 -0.471855C 35.675 -0.472177 35.6695 -0.472613 35.6624 -0.473142C 35.6483 -0.4742 35.6282 -0.475633 35.6021 -0.477289C 35.55 -0.480602 35.4742 -0.484809 35.376 -0.488699C 35.1797 -0.49648 34.8938 -0.502998 34.5281 -0.498555C 33.7968 -0.489671 32.7459 -0.436947 31.455 -0.26262C 28.8735 0.0859896 25.3281 0.921434 21.4578 2.8679C 13.7008 6.76915 4.70394 15.1008 -0.47973 32.747L 0.47973 33.0289Z"/>
<path id="path14_fill" d="M 0 4C 0 1.79086 1.79086 0 4 0L 117 0C 119.209 0 121 1.79086 121 4L 121 10.0948C 121 12.304 119.209 14.0948 117 14.0948L 4 14.0948C 1.79086 14.0948 0 12.304 0 10.0948L 0 4Z"/>
<path id="path15_fill" d="M 41.45 20.6724C 41.45 32.0895 32.1711 41.3448 20.725 41.3448C 9.2789 41.3448 0 32.0895 0 20.6724C 0 9.25535 9.2789 0 20.725 0C 32.1711 0 41.45 9.25535 41.45 20.6724Z"/>
<path id="path16_fill" d="M 0 0L 47.1672 0L 47.1672 41.3448L 0 41.3448L 0 0Z"/>
<path id="path17_fill" d="M 17.8217 8.92672C 17.8217 13.8568 13.8322 17.8534 8.91085 17.8534C 3.98952 17.8534 0 13.8568 0 8.92672C 0 3.99663 3.98952 0 8.91085 0C 13.8322 0 17.8217 3.99663 17.8217 8.92672Z"/>
<path id="path18_stroke_2x" d="M 12.8217 8.92672C 12.8217 11.1038 11.0624 12.8534 8.91085 12.8534L 8.91085 22.8534C 16.602 22.8534 22.8217 16.6098 22.8217 8.92672L 12.8217 8.92672ZM 8.91085 12.8534C 6.75933 12.8534 5 11.1038 5 8.92672L -5 8.92672C -5 16.6098 1.21972 22.8534 8.91085 22.8534L 8.91085 12.8534ZM 5 8.92672C 5 6.74966 6.75933 5 8.91085 5L 8.91085 -5C 1.21972 -5 -5 1.2436 -5 8.92672L 5 8.92672ZM 8.91085 5C 11.0624 5 12.8217 6.74966 12.8217 8.92672L 22.8217 8.92672C 22.8217 1.2436 16.602 -5 8.91085 -5L 8.91085 5Z"/>
<path id="path19_fill" d="M 10.3178 5.1681C 10.3178 8.02237 8.0081 10.3362 5.15891 10.3362C 2.30972 10.3362 0 8.02237 0 5.1681C 0 2.31384 2.30972 0 5.15891 0C 8.0081 0 10.3178 2.31384 10.3178 5.1681Z"/>
<path id="path20_fill" d="M 0 0L 2.81395 0L 2.81395 14.0948L 0 14.0948L 0 0Z"/>
<path id="path21_fill" d="M 0 0L 2.81395 0L 2.81395 0.939655L 0 0.939655L 0 0Z"/>
<path id="path22_fill" d="M 0 0L 3.75194 0L 3.75194 10.3362L 0 10.3362L 0 0Z"/>
<path id="path23_fill" d="M 0 0L 18.7597 0L 18.7597 18.8098C 18.7597 23.9901 14.5602 28.1897 9.37984 28.1897C 4.1995 28.1897 0 23.9902 0 18.8098L 0 0Z"/>
<path id="path24_fill" d="M 0 0L 38.4574 0L 38.4574 2.81897L 0 2.81897L 0 0Z"/>
<path id="path25_fill" d="M 0 2.81897L 1.87597 0L 1.87597 2.81897L 0 2.81897Z"/>
</defs>
</svg>
