<svg width="493" height="994" viewBox="0 0 493 994" version="1.1" xmlns="http://www.w3.org/2000/svg" xmlns:xlink="http://www.w3.org/1999/xlink">
<title>Phone</title>
<desc>Created using Figma</desc>
<g id="Canvas" transform="translate(6036 1062)">
<g id="Phone">
<g id="Rectangle">
<use xlink:href="#path0_fill" transform="translate(-6033.85 -1062)" fill="#FFFFFF"/>
</g>
<g id="Rectangle" filter="url(#filter0_i)">
<use xlink:href="#path1_fill" transform="translate(-6033.85 -1062)" fill="#FFFFFF"/>
</g>
<g id="Rectangle 2">
<use xlink:href="#path2_fill" transform="translate(-6015.55 -1041.54)" fill="#F2F2F2"/>
</g>
<g id="Rectangle 4">
<use xlink:href="#path3_fill" transform="translate(-6036 -948.923)" fill="#FFFFFF"/>
</g>
<g id="Rectangle 4.1">
<use xlink:href="#path4_fill" transform="translate(-6036 -840.154)" fill="#FFFFFF"/>
</g>
<g id="Rectangle 4.3">
<use xlink:href="#path4_fill" transform="translate(-5545.15 -883.231)" fill="#FFFFFF"/>
</g>
<g id="Rectangle 4.2">
<use xlink:href="#path4_fill" transform="translate(-6036 -771.231)" fill="#FFFFFF"/>
</g>
<g id="Rectangle 5">
<use xlink:href="#path5_fill" transform="translate(-5918.67 -1041.54)" fill="#FEFEFE"/>
</g>
<g id="Group">
<g id="Rectangle">
<use xlink:href="#path6_fill" transform="translate(-5975.72 -971.538)" fill="#F9F7F8"/>
</g>
<g id="Rectangle 2">
<use xlink:href="#path7_fill" transform="translate(-5975.72 -971.538)" fill="#FFFFFF"/>
</g>
<g id="Rectangle 2.1">
<use xlink:href="#path8_fill" transform="translate(-5939.12 -920.923)" fill="#6FCF97"/>
</g>
<g id="Rectangle 2.2">
<use xlink:href="#path9_fill" transform="translate(-5939.48 -868.847)" fill="#EDEBEC"/>
</g>
<g id="Rectangle 2.4">
<use xlink:href="#path10_fill" transform="translate(-5939.12 -841.231)" fill="#EDEBEC"/>
</g>
<g id="Rectangle 2.8">
<use xlink:href="#path11_fill" transform="translate(-5662.48 -760.462)" fill="#EDEBEC"/>
</g>
<g id="Rectangle 2.7">
<use xlink:href="#path12_fill" transform="translate(-5939.12 -814.308)" fill="#EDEBEC"/>
</g>
<g id="Rectangle 2.9">
<use xlink:href="#path12_fill" transform="translate(-5939.12 -787.385)" fill="#EDEBEC"/>
</g>
</g>
<g id="Group">
<g id="Rectangle">
<use xlink:href="#path6_fill" transform="translate(-5975.72 -672.154)" fill="#F9F7F8"/>
</g>
<g id="Rectangle 2">
<use xlink:href="#path7_fill" transform="translate(-5975.72 -672.154)" fill="#FFFFFF"/>
</g>
<g id="Rectangle 2.1">
<use xlink:href="#path13_fill" transform="translate(-5939.12 -621.538)" fill="#F2994A"/>
</g>
<g id="Rectangle 2.2">
<use xlink:href="#path9_fill" transform="translate(-5939.48 -569.462)" fill="#EDEBEC"/>
</g>
<g id="Rectangle 2.4">
<use xlink:href="#path10_fill" transform="translate(-5939.12 -541.846)" fill="#EDEBEC"/>
</g>
<g id="Rectangle 2.8">
<use xlink:href="#path11_fill" transform="translate(-5662.48 -461.077)" fill="#EDEBEC"/>
</g>
<g id="Rectangle 2.7">
<use xlink:href="#path12_fill" transform="translate(-5939.12 -514.923)" fill="#EDEBEC"/>
</g>
<g id="Rectangle 2.9">
<use xlink:href="#path12_fill" transform="translate(-5939.12 -488)" fill="#EDEBEC"/>
</g>
</g>
<g id="Group">
<g id="Rectangle">
<use xlink:href="#path14_fill" transform="translate(-5975.72 -372.769)" fill="#F9F7F8"/>
</g>
<g id="Rectangle 2">
<use xlink:href="#path7_fill" transform="translate(-5975.72 -372.769)" fill="#FFFFFF"/>
</g>
<g id="Rectangle 2.1">
<use xlink:href="#path13_fill" transform="translate(-5939.12 -322.154)" fill="#59CDF2"/>
</g>
<g id="Rectangle 2.2">
<use xlink:href="#path9_fill" transform="translate(-5939.48 -270.078)" fill="#EDEBEC"/>
</g>
<g id="Rectangle 2.4">
<use xlink:href="#path10_fill" transform="translate(-5939.12 -242.462)" fill="#EDEBEC"/>
</g>
<g id="Rectangle 2.8">
<use xlink:href="#path11_fill" transform="translate(-5662.48 -161.692)" fill="#EDEBEC"/>
</g>
<g id="Rectangle 2.7">
<use xlink:href="#path12_fill" transform="translate(-5939.12 -215.538)" fill="#EDEBEC"/>
</g>
<g id="Rectangle 2.9">
<use xlink:href="#path12_fill" transform="translate(-5939.12 -188.615)" fill="#EDEBEC"/>
</g>
</g>
</g>
</g>
<defs>
<filter id="filter0_i" filterUnits="userSpaceOnUse" x="-6034" y="-1062" width="489" height="994" color-interpolation-filters="sRGB">
<feFlood flood-opacity="0" result="BackgroundImageFix"/>
<feBlend mode="normal" in="SourceGraphic" in2="BackgroundImageFix" result="shape"/>
<feColorMatrix in="SourceAlpha" type="matrix" values="0 0 0 0 0 0 0 0 0 0 0 0 0 0 0 0 0 0 255 0" result="hardAlpha"/>
<feOffset dx="0" dy="0"/>
<feGaussianBlur stdDeviation="6"/>
<feComposite in2="hardAlpha" operator="arithmetic" k2="-1" k3="1"/>
<feColorMatrix type="matrix" values="0 0 0 0 0.94 0 0 0 0 0.94 0 0 0 0 0.94 0 0 0 1 0"/>
<feBlend mode="normal" in2="shape" result="effect1_innerShadow"/>
</filter>
<path id="path0_fill" d="M 0 50C 0 22.3857 22.3858 0 50 0L 438.694 0C 466.309 0 488.694 22.3858 488.694 50L 488.694 944C 488.694 971.614 466.309 994 438.694 994L 50 994C 22.3858 994 0 971.614 0 944L 0 50Z"/>
<path id="path1_fill" d="M 0 50C 0 22.3857 22.3858 0 50 0L 438.694 0C 466.309 0 488.694 22.3858 488.694 50L 488.694 944C 488.694 971.614 466.309 994 438.694 994L 50 994C 22.3858 994 0 971.614 0 944L 0 50Z"/>
<path id="path2_fill" d="M 0 37C 0 16.5654 16.5655 0 37 0L 415.096 0C 435.531 0 452.096 16.5655 452.096 37L 452.096 917.154C 452.096 937.588 435.531 954.154 415.096 954.154L 37 954.154C 16.5655 954.154 0 937.588 0 917.154L 0 37Z"/>
<path id="path3_fill" d="M 0 0L 2.15284 0L 2.15284 21.5385L 0 21.5385L 0 0Z"/>
<path id="path4_fill" d="M 0 0L 2.15284 0L 2.15284 43.0769L 0 43.0769L 0 0Z"/>
<path id="path5_fill" d="M 0 0L 258.341 0L 258.341 3.07692C 258.341 25.1683 240.432 43.0769 218.341 43.0769L 40 43.0769C 17.9086 43.0769 0 25.1683 0 3.07692L 0 0Z"/>
<path id="path6_fill" d="M 0 28C 0 12.536 12.536 0 28 0L 344.441 0C 359.905 0 372.441 12.536 372.441 28L 372.441 234.769C 372.441 250.233 359.905 262.769 344.441 262.769L 28 262.769C 12.536 262.769 0 250.233 0 234.769L 0 28Z"/>
<path id="path7_fill" d="M 0 28C 0 12.536 12.536 0 28 0L 344.441 0C 359.905 0 372.441 12.536 372.441 28L 372.441 30.5546L 0 30.5546L 0 28Z"/>
<path id="path8_fill" d="M 0 12.9231C 0 5.78586 5.78586 0 12.9231 0L 128.088 0C 135.225 0 141.011 5.78586 141.011 12.9231C 141.011 20.0603 135.225 25.8462 128.088 25.8462L 12.9231 25.8462C 5.78586 25.8462 0 20.0603 0 12.9231Z"/>
<path id="path9_fill" d="M 0 9.06101C 0 4.05675 4.05675 0 9.06101 0L 283.859 0C 288.863 0 292.92 4.05675 292.92 9.06101C 292.92 14.0653 288.863 18.122 283.859 18.122L 9.061 18.122C 4.05675 18.122 0 14.0653 0 9.06101Z"/>
<path id="path10_fill" d="M 0 8.61538C 0 3.85724 3.85724 0 8.61539 0L 227.12 0C 231.879 0 235.736 3.85724 235.736 8.61538C 235.736 13.3735 231.879 17.2308 227.12 17.2308L 8.61538 17.2308C 3.85724 17.2308 0 13.3735 0 8.61538Z"/>
<path id="path11_fill" d="M 0 15.0769C 0 6.75017 6.75017 0 15.0769 0L 17.2157 0C 25.5424 0 32.2926 6.75017 32.2926 15.0769C 32.2926 23.4037 25.5424 30.1538 17.2156 30.1538L 15.0769 30.1538C 6.75016 30.1538 0 23.4037 0 15.0769Z"/>
<path id="path12_fill" d="M 0 8.61538C 0 3.85724 3.85724 0 8.61539 0L 176.529 0C 181.287 0 185.144 3.85724 185.144 8.61538C 185.144 13.3735 181.287 17.2308 176.529 17.2308L 8.61539 17.2308C 3.85724 17.2308 0 13.3735 0 8.61538Z"/>
<path id="path13_fill" d="M 0 12.9231C 0 5.78586 5.78586 0 12.9231 0L 128.088 0C 135.225 0 141.011 5.78586 141.011 12.9231C 141.011 20.0603 135.225 25.8462 128.088 25.8462L 12.9231 25.8462C 5.78587 25.8462 0 20.0603 0 12.9231Z"/>
<path id="path14_fill" d="M 0 28C 0 12.536 12.536 0 28 0L 344.441 0C 359.905 0 372.441 12.536 372.441 28L 372.441 234.769C 372.441 250.233 359.905 262.769 344.441 262.769L 28 262.769C 12.536 262.769 0 250.233 0 234.769L 0 28Z"/>
</defs>
</svg>
