<svg width="220" height="114" viewBox="0 0 220 114" version="1.1" xmlns="http://www.w3.org/2000/svg" xmlns:xlink="http://www.w3.org/1999/xlink">
<title>Group 13</title>
<desc>Created using Figma</desc>
<g id="Canvas" transform="translate(3978 -904)">
<g id="Group 13">
<g id="Flygplan">
<g id="Polygon 2">
<use xlink:href="#path0_fill" transform="translate(-3883 904)" fill="#C4C4C4"/>
</g>
<g id="Polygon 2">
<use xlink:href="#path1_fill" transform="translate(-3867 962)" fill="#CFCFCF"/>
</g>
<g id="Polygon">
<use xlink:href="#path2_fill" transform="matrix(0.768413 0.639955 -0.637933 0.770092 -3827.42 848)" fill="#D1D5DD"/>
<use xlink:href="#path3_fill" transform="matrix(0.768413 0.639955 -0.637933 0.770092 -3827.42 848)" fill="#D1D5DD"/>
</g>
</g>
<g id="Group 9">
<g id="Line">
<use xlink:href="#path4_stroke" transform="matrix(-0.907882 0.419225 -0.760892 -0.648879 -3903.25 971)" fill="#FFFFFF"/>
</g>
<g id="Line">
<use xlink:href="#path5_fill" transform="matrix(-0.907882 0.419225 -0.760892 -0.648879 -3915.6 988.65)" fill="#C4C4C4"/>
<use xlink:href="#path6_stroke" transform="matrix(-0.907882 0.419225 -0.760892 -0.648879 -3915.6 988.65)" fill="#FFFFFF"/>
</g>
<g id="Line">
<use xlink:href="#path4_stroke" transform="matrix(-0.907882 0.419225 -0.760892 -0.648879 -3889 985.655)" fill="#FFFFFF"/>
</g>
</g>
</g>
</g>
<defs>
<path id="path0_fill" d="M 124.937 0L 17.2087 74.132L 0 46.5243L 124.937 0Z"/>
<path id="path1_fill" d="M 8.74527 0.739259C 8.9752 0.311743 9.47894 0.111094 9.93983 0.263445L 28.9642 6.55205C 29.8947 6.85963 29.8733 8.18322 28.9334 8.46062L 2.2993 16.3214C 1.44713 16.5729 0.714677 15.6711 1.13553 14.8886L 8.74527 0.739259Z"/>
<path id="path2_fill" d="M 88.9694 0L 75.9901 103.681C 75.7064 105.948 73.9228 107.734 71.6568 108.021L 55.1287 110.113C 51.3885 110.586 48.4897 106.908 49.8247 103.382L 88.9694 0Z"/>
<path id="path3_fill" d="M 88.9694 0L 23.2713 115.092L 10.3323 115.256C 6.15235 115.308 3.75705 110.513 6.30959 107.203L 88.9694 0Z"/>
<path id="path4_stroke" d="M 0 0L 67.6251 0L 67.6251 -2L 0 -2L 0 0Z"/>
<path id="path5_fill" d="M -3.7611e-06 2.34663e-05L 67.6251 2.34663e-05L -3.7611e-06 2.34663e-05Z"/>
<path id="path6_stroke" d="M -3.7611e-06 1.00002L 67.6251 1.00002L 67.6251 -0.999977L -3.7611e-06 -0.999977L -3.7611e-06 1.00002Z"/>
</defs>
</svg>
