<svg width="789" height="460" viewBox="0 0 789 460" version="1.1" xmlns="http://www.w3.org/2000/svg" xmlns:xlink="http://www.w3.org/1999/xlink">
<title>Group 12</title>
<desc>Created using Figma</desc>
<g id="Canvas" transform="translate(4262 -1449)">
<g id="Group 12">
<g id="Group 8">
<g id="Rectangle 13">
<use xlink:href="#path0_fill" transform="translate(-3582 1640)" fill="url(#paint0_linear)"/>
</g>
<g id="Rectangle 13.1">
<use xlink:href="#path1_fill" transform="translate(-3574 1667.32)" fill="#219653"/>
</g>
<g id="Computer">
<g id="Rectangle 6.2">
<use xlink:href="#path2_fill" transform="translate(-3782 1707)" fill="#E0E0E0"/>
</g>
<g id="Rectangle 3">
<use xlink:href="#path3_fill" transform="translate(-4262 1719)" fill="#EB5757"/>
</g>
<g id="Rectangle 4">
<use xlink:href="#path4_fill" transform="translate(-4202 1749)" fill="#665D5B"/>
</g>
<g id="Rectangle 4.1">
<use xlink:href="#path4_fill" transform="translate(-3571 1749)" fill="#665D5B"/>
</g>
<g id="Polygon">
<use xlink:href="#path5_fill" transform="matrix(1 0 0 -1 -4202.12 1778.5)" fill="#4F4F4F"/>
</g>
<g id="Polygon">
<use xlink:href="#path5_fill" transform="matrix(1 0 0 -1 -3571 1778.5)" fill="#4F4F4F"/>
</g>
<g id="Rectangle 6.3">
<use xlink:href="#path6_fill" transform="matrix(6.12323e-17 -1 1 6.12323e-17 -3739 1719)" fill="#C4C4C4"/>
</g>
<g id="Rectangle 5">
<use xlink:href="#path7_fill" transform="translate(-4008 1519)" fill="#E0E0E0"/>
</g>
<g id="Rectangle 5.1">
<use xlink:href="#path8_fill" transform="translate(-3916 1573)" fill="#D1CFCF"/>
</g>
<g id="Ellipse">
<use xlink:href="#path9_fill" transform="translate(-3981 1583)" fill="#2D9CDB"/>
</g>
<g id="Ellipse">
<use xlink:href="#path9_fill" transform="translate(-3960 1598)" fill="#27AE60"/>
</g>
<g id="Ellipse">
<use xlink:href="#path9_fill" transform="translate(-3883 1598)" fill="#FFFFFF"/>
</g>
<g id="Rectangle 6">
<use xlink:href="#path10_fill" transform="translate(-3980 1685)" fill="#F2C94C"/>
</g>
<g id="Rectangle 6.1">
<use xlink:href="#path11_fill" transform="translate(-3902 1685)" fill="#E0BB48"/>
</g>
</g>
<g id="Rectangle 8">
<use xlink:href="#path12_fill" transform="matrix(0.939693 -0.34202 0.34202 0.939693 -4228 1569.42)" fill="#C4C4C4"/>
</g>
<g id="Rectangle 8.1">
<use xlink:href="#path13_fill" transform="matrix(0.766044 0.642788 -0.642788 0.766044 -4136.01 1459)" fill="#C4C4C4"/>
</g>
<g id="Ellipse">
<use xlink:href="#path14_fill" transform="translate(-4196 1694)" fill="#BDBDBD"/>
</g>
<g id="Ellipse">
<use xlink:href="#path15_fill" transform="translate(-4231 1559)" fill="#BDBDBD"/>
</g>
<g id="Ellipse">
<use xlink:href="#path15_fill" transform="translate(-4146 1456)" fill="#BDBDBD"/>
</g>
<g id="Rectangle 9">
<use xlink:href="#path16_fill" transform="translate(-4137 1449)" fill="#C4C4C4"/>
</g>
<g id="Rectangle 9.1">
<use xlink:href="#path17_fill" transform="translate(-4137 1469)" fill="#FFF1A8"/>
</g>
<g id="Rectangle 7">
<use xlink:href="#path18_fill" transform="translate(-4215 1707)" fill="#C4C4C4"/>
</g>
<g id="Rectangle 10.1">
<use xlink:href="#path19_fill" transform="translate(-4137 1467)" fill="#B5B5B5"/>
</g>
<g id="Rectangle 11">
<use xlink:href="#path20_fill" transform="translate(-3585 1688)" fill="#828282"/>
</g>
<g id="Rectangle 11.1">
<use xlink:href="#path21_fill" transform="translate(-3576.5 1700)" fill="#6E6B6B"/>
</g>
<g id="Rectangle 12">
<use xlink:href="#path22_fill" transform="translate(-3582 1717)" fill="#4F4F4F"/>
</g>
<g id="Rectangle 12.1">
<use xlink:href="#path23_fill" transform="translate(-3586 1688)" fill="#4F4F4F"/>
</g>
</g>
</g>
</g>
<defs>
<linearGradient id="paint0_linear" x1="0" y1="0" x2="1" y2="0" gradientUnits="userSpaceOnUse" gradientTransform="matrix(9.26732e-07 105 -56.875 5.52934e-07 41.4375 -53.5)">
<stop offset="0.231831" stop-color="#27AE60" stop-opacity="0.38"/>
<stop offset="1" stop-color="#27AE60"/>
</linearGradient>
<path id="path0_fill" d="M 3.8197 4.91507C 9.72829 -1.63836 16.2717 -1.63836 22.1803 4.91507C 30.7746 14.4473 22.1803 48 22.1803 48L 3.8197 48C 3.8197 48 -4.77462 14.4473 3.8197 4.91507Z"/>
<path id="path1_fill" d="M 0 20.6773C 0 20.6773 17.5 -5.8225 17.5 1.17731C 17.5 8.17712 14.5 20.6773 14.5 20.6773L 0 20.6773Z"/>
<path id="path2_fill" d="M 0 6C 0 2.68629 2.68629 0 6 0L 122 0C 125.314 0 128 2.68629 128 6C 128 9.31371 125.314 12 122 12L 6 12C 2.68629 12 0 9.31371 0 6Z"/>
<path id="path3_fill" d="M 0 10C 0 4.47715 4.47715 0 10 0L 779 0C 784.523 0 789 4.47715 789 10L 789 20C 789 25.5228 784.523 30 779 30L 10 30C 4.47715 30 0 25.5228 0 20L 0 10Z"/>
<path id="path4_fill" d="M 0 0L 38 0L 38 160L 0 160L 0 0Z"/>
<path id="path5_fill" d="M 0 0L 38.1196 29.5L 0 29.5L 0 0Z"/>
<path id="path6_fill" d="M 0 0L 200 1L 200 4C 200 9.52285 195.523 14 190 14L 10.3112 14C 5.0648 14 0.710395 9.94553 0.336605 4.71247L 0 0Z"/>
<path id="path7_fill" d="M 0 10C 0 4.47716 4.47715 0 10 0L 270 0C 275.523 0 280 4.47715 280 10L 280 190C 280 195.523 275.523 200 270 200L 10 200C 4.47715 200 0 195.523 0 190L 0 10Z"/>
<path id="path8_fill" d="M 188 0L 188 136C 188 141.523 183.523 146 178 146L 0 146L 188 0Z"/>
<path id="path9_fill" d="M 30 15C 30 23.2843 23.2843 30 15 30C 6.71573 30 0 23.2843 0 15C 0 6.71573 6.71573 0 15 0C 23.2843 0 30 6.71573 30 15Z"/>
<path id="path10_fill" d="M 0 10C 0 4.47715 4.47715 0 10 0L 118 0C 123.523 0 128 4.47715 128 10L 128 15C 128 20.5228 123.523 25 118 25L 10 25C 4.47715 25 0 20.5228 0 15L 0 10Z"/>
<path id="path11_fill" d="M 38.5 0L 45 0C 50.5228 0 55 4.47715 55 10L 55 15C 55 20.5228 50.5228 25 45 25L 0 25L 38.5 0Z"/>
<path id="path12_fill" d="M 0 0L 10 0L 10 140L 0 140L 0 0Z"/>
<path id="path13_fill" d="M 0 0L 10.1168 0L 10.1168 140L 0 140L 0 0Z"/>
<path id="path14_fill" d="M 44 12.5C 44 19.4036 34.1503 25 22 25C 9.84974 25 0 19.4036 0 12.5C 0 5.59644 9.84974 0 22 0C 34.1503 0 44 5.59644 44 12.5Z"/>
<path id="path15_fill" d="M 22 11C 22 17.0751 17.0751 22 11 22C 4.92487 22 0 17.0751 0 11C 0 4.92487 4.92487 0 11 0C 17.0751 0 22 4.92487 22 11Z"/>
<path id="path16_fill" d="M 0 18C 0 8.05888 8.05888 0 18 0L 110 0C 119.941 0 128 8.05888 128 18C 128 27.9411 119.941 36 110 36L 18 36C 8.05888 36 0 27.9411 0 18Z"/>
<path id="path17_fill" d="M 0 0L 128 0C 127.557 9.2477 119.949 16.5286 110.691 16.5651L 17.3995 16.933C 7.9556 16.9702 0.219409 9.44142 0 0Z"/>
<path id="path18_fill" d="M 0 0L 82 0L 82 12L 0 12L 0 0Z"/>
<path id="path19_fill" d="M 0 0L 128 0L 128 2L 0 2L 0 0Z"/>
<path id="path20_fill" d="M 0 0L 32 0L 27.5 31L 4.5 31L 0 0Z"/>
<path id="path21_fill" d="M 22 0L 19 19L 0 19L 22 0Z"/>
<path id="path22_fill" d="M 0 1C 0 0.447715 0.447715 0 1 0L 25 0C 25.5523 0 26 0.447715 26 1C 26 1.55228 25.5523 2 25 2L 1 2C 0.447716 2 0 1.55228 0 1Z"/>
<path id="path23_fill" d="M 0 1C 0 0.447715 0.447715 0 1 0L 33 0C 33.5523 0 34 0.447715 34 1C 34 1.55228 33.5523 2 33 2L 1 2C 0.447716 2 0 1.55228 0 1Z"/>
</defs>
</svg>
